{
    "asset": {
        "version": "2.0",
        "generator": "Open Asset Import Library (assimp v5.0.5eb040c7)"
    },
    "accessors": [
        {
            "bufferView": 0,
            "byteOffset": 0,
            "componentType": 5126,
            "count": 9316,
            "type": "VEC3",
            "max": [
                84.55026245117188,
                217.02328491210938,
                102.78821563720703
            ],
            "min": [
                -96.10671997070313,
                109.41197967529297,
                -126.57842254638672
            ]
        },
        {
            "bufferView": 1,
            "byteOffset": 0,
            "componentType": 5126,
            "count": 9316,
            "type": "VEC3",
            "max": [
                0.9991093873977661,
                0.9999129772186279,
                0.9999935030937195
            ],
            "min": [
                -0.9990307688713074,
                -0.9999361038208008,
                -0.9999933838844299
            ]
        },
        {
            "bufferView": 2,
            "byteOffset": 0,
            "componentType": 5126,
            "count": 9316,
            "type": "VEC2",
            "max": [
                0.9997349977493286,
                0.9997349977493286
            ],
            "min": [
                0.00026500000967644155,
                0.0904579758644104
            ]
        },
        {
            "bufferView": 3,
            "byteOffset": 0,
            "componentType": 5125,
            "count": 52608,
            "type": "SCALAR",
            "max": [
                9315
            ],
            "min": [
                0
            ]
        },
        {
            "bufferView": 4,
            "byteOffset": 0,
            "componentType": 5126,
            "count": 121,
            "type": "VEC3",
            "max": [
                73.01335906982422,
                141.03988647460938,
                0.0
            ],
            "min": [
                -73.01335906982422,
                -81.27836608886719,
                0.0
            ]
        },
        {
            "bufferView": 5,
            "byteOffset": 0,
            "componentType": 5126,
            "count": 121,
            "type": "VEC3",
            "max": [
                0.0,
                0.0,
                1.0
            ],
            "min": [
                0.0,
                0.0,
                1.0
            ]
        },
        {
            "bufferView": 6,
            "byteOffset": 0,
            "componentType": 5126,
            "count": 121,
            "type": "VEC2",
            "max": [
                1.0,
                1.0
            ],
            "min": [
                0.0,
                0.0
            ]
        },
        {
            "bufferView": 7,
            "byteOffset": 0,
            "componentType": 5125,
            "count": 600,
            "type": "SCALAR",
            "max": [
                120
            ],
            "min": [
                0
            ]
        }
    ],
    "buffers": [
        {
            "byteLength": 514816,
            "uri": "result.bin"
        }
    ],
    "bufferViews": [
        {
            "buffer": 0,
            "byteOffset": 0,
            "byteLength": 111792,
            "target": 34962
        },
        {
            "buffer": 0,
            "byteOffset": 111792,
            "byteLength": 111792,
            "target": 34962
        },
        {
            "buffer": 0,
            "byteOffset": 223584,
            "byteLength": 74528,
            "target": 34962
        },
        {
            "buffer": 0,
            "byteOffset": 298112,
            "byteLength": 210432,
            "target": 34963
        },
        {
            "buffer": 0,
            "byteOffset": 508544,
            "byteLength": 1452,
            "target": 34962
        },
        {
            "buffer": 0,
            "byteOffset": 509996,
            "byteLength": 1452,
            "target": 34962
        },
        {
            "buffer": 0,
            "byteOffset": 511448,
            "byteLength": 968,
            "target": 34962
        },
        {
            "buffer": 0,
            "byteOffset": 512416,
            "byteLength": 2400,
            "target": 34963
        }
    ],
    "materials": [
        {
            "name": "DefaultMaterial",
            "pbrMetallicRoughness": {
                "baseColorFactor": [
                    0.6000000238418579,
                    0.6000000238418579,
                    0.6000000238418579,
                    1.0
                ],
                "metallicFactor": 0.0
            }
        },
        {
            "name": "lambert3SG",
            "pbrMetallicRoughness": {
                "baseColorFactor": [
                    0.6000000238418579,
                    0.6000000238418579,
                    0.6000000238418579,
                    1.0
                ],
                "metallicFactor": 0.0
            }
        },
        {
            "name": "lambert2SG",
            "pbrMetallicRoughness": {
                "baseColorFactor": [
                    0.6000000238418579,
                    0.6000000238418579,
                    0.6000000238418579,
                    1.0
                ],
                "metallicFactor": 0.0
            }
        }
    ],
    "meshes": [
        {
            "name": "cowboy_hat:hat3",
            "primitives": [
                {
                    "mode": 4,
                    "material": 1,
                    "indices": 3,
                    "attributes": {
                        "POSITION": 0,
                        "NORMAL": 1,
                        "TEXCOORD_0": 2
                    }
                },
                {
                    "mode": 4,
                    "material": 2,
                    "indices": 7,
                    "attributes": {
                        "POSITION": 4,
                        "NORMAL": 5,
                        "TEXCOORD_0": 6
                    }
                }
            ]
        }
    ],
    "nodes": [
        {
            "name": "input.obj",
            "children": [
                1,
                2
            ]
        },
        {
            "name": "default"
        },
        {
            "name": "cowboy_hat:hat3",
            "mesh": 0
        }
    ],
    "scenes": [
        {
            "nodes": [
                0
            ]
        }
    ],
    "scene": 0
}