{"accessors" : [{"bufferView" : 0, "byteOffset" : 0, "componentType" : 5123, "count" : 8784, "type" : "SCALAR", "max" : [7331], "min" : [0]}, {"bufferView" : 1, "byteOffset" : 0, "componentType" : 5126, "count" : 7332, "type" : "VEC3", "max" : [1.298995018005371, 1.0422420501708984, 2.9060521125793457], "min" : [-1.298995018005371, -0.9438490271568298, -2.8905189037323], "name" : "POSITION"}, {"bufferView" : 1, "byteOffset" : 12, "componentType" : 5126, "count" : 7332, "type" : "VEC2", "max" : [1, -0], "min" : [0, -1], "name" : "TEXCOORD_0"}, {"bufferView" : 1, "byteOffset" : 20, "componentType" : 5126, "count" : 7332, "type" : "VEC3", "max" : [1.0000044107437134, 1.0000044107437134, 1.0000044107437134], "min" : [-1.0000044107437134, -1.0000044107437134, -1.0000044107437134], "name" : "NORMAL"}, {"bufferView" : 0, "byteOffset" : 17568, "componentType" : 5123, "count" : 1920, "type" : "SCALAR", "max" : [1619], "min" : [0]}, {"bufferView" : 2, "byteOffset" : 0, "componentType" : 5126, "count" : 1620, "type" : "VEC3", "max" : [0.3061870038509369, 0.5320950150489807, 2.0629990100860596], "min" : [0.03255600109696388, 0.19260600209236145, 1.7846599817276], "name" : "POSITION"}, {"bufferView" : 2, "byteOffset" : 12, "componentType" : 5126, "count" : 1620, "type" : "VEC2", "max" : [0.65625, 0], "min" : [0.34375, -1], "name" : "TEXCOORD_0"}, {"bufferView" : 2, "byteOffset" : 20, "componentType" : 5126, "count" : 1620, "type" : "VEC3", "max" : [0.9946587681770325, 0.9966565370559692, 0.9966626763343811], "min" : [-0.9996533989906311, -0.9860379099845886, -0.9954180717468262], "name" : "NORMAL"}, {"bufferView" : 0, "byteOffset" : 21408, "componentType" : 5123, "count" : 2280, "type" : "SCALAR", "max" : [1919], "min" : [0]}, {"bufferView" : 3, "byteOffset" : 0, "componentType" : 5126, "count" : 1920, "type" : "VEC3", "max" : [0.06370999664068222, -0.2646619975566864, 2.8559300899505615], "min" : [-0.0078959995880723, -0.3896070122718811, 2.4832170009613037], "name" : "POSITION"}, {"bufferView" : 3, "byteOffset" : 12, "componentType" : 5126, "count" : 1920, "type" : "VEC2", "max" : [0.65625, 0], "min" : [0.34375, -1], "name" : "TEXCOORD_0"}, {"bufferView" : 3, "byteOffset" : 20, "componentType" : 5126, "count" : 1920, "type" : "VEC3", "max" : [0.9997317790985107, 0.9997317790985107, 0.9995835423469543], "min" : [-0.9997317790985107, -0.9997317790985107, -1.0000044107437134], "name" : "NORMAL"}], "asset" : {"generator" : "Aspose.3D 22.1", "version" : "2.0"}, "buffers" : [{"uri" : "data:application/octet-stream;base64,", "byteLength" : 441472}], "bufferViews" : [{"buffer" : 0, "byteOffset" : 0, "byteLength" : 25968, "target" : 34963}, {"buffer" : 0, "byteOffset" : 25972, "byteLength" : 281088, "byteStride" : 32, "target" : 34962}, {"buffer" : 0, "byteOffset" : 307064, "byteLength" : 61440, "byteStride" : 32, "target" : 34962}, {"buffer" : 0, "byteOffset" : 368508, "byteLength" : 72960, "byteStride" : 32, "target" : 34962}], "meshes" : [{"primitives" : [{"attributes" : {"POSITION" : 1, "TEXCOORD_0" : 2, "NORMAL" : 3}, "indices" : 0, "mode" : 4}], "name" : ""}, {"primitives" : [{"attributes" : {"POSITION" : 5, "TEXCOORD_0" : 6, "NORMAL" : 7}, "indices" : 4, "mode" : 4}], "name" : ""}, {"primitives" : [{"attributes" : {"POSITION" : 9, "TEXCOORD_0" : 10, "NORMAL" : 11}, "indices" : 8, "mode" : 4}], "name" : ""}], "nodes" : [{"mesh" : 0, "name" : "pCube1 pCube1SmoothProxyGroup"}, {"mesh" : 1, "name" : "birthdayHat_GEO"}, {"mesh" : 2, "name" : "birthdaySmolHorn_GEO"}], "scene" : 0, "scenes" : [{"nodes" : [0, 1, 2]}]}